Coordinates
version=1
nRows=14
nColumns=21
inDegrees=yes

Units are S.I. units (second, meters, Newtons, ...)
Angles are in degrees.

endheader
time	sternoclavicular_r2	sternoclavicular_r3	unrotscap_r3	unrotscap_r2	acromioclavicular_r2	acromioclavicular_r3	acromioclavicular_r1	unrothum_r1	unrothum_r3	unrothum_r2	elv_angle	shoulder_elev	shoulder1_r2	shoulder_rot	elbow_flexion	pro_sup	deviation	flexion	wrist_hand_r1	wrist_hand_r3
      0.82661290	    -14.94099608	      6.32830076	     -6.32830076	     14.94099608	     -3.02524778	     24.44898844	     10.98965204	    -10.98965204	    -24.44898844	      3.02524778	     85.77185063	     61.73951486	    -85.77185063	     19.73100505	      5.58155920	     90.00000000	      0.00000000	      0.00000000	      0.00000000	      0.00000000
      0.84677419	    -15.10706766	      6.39864085	     -6.39864085	     15.10706766	     -3.05887390	     24.72074288	     11.11180379	    -11.11180379	    -24.72074288	      3.05887390	     85.75637634	     62.42575952	    -85.75637634	     19.70628397	      5.56197642	     90.00000000	      0.00000000	      0.00000000	      0.00000000	      0.00000000
      0.86693548	    -15.24239750	      6.45596018	     -6.45596018	     15.24239750	     -3.08627544	     24.94219249	     11.21134387	    -11.21134387	    -24.94219249	      3.08627544	     85.74161009	     62.98497247	    -85.74161009	     19.68814076	      5.54673325	     90.00000000	      0.00000000	      0.00000000	      0.00000000	      0.00000000
      0.88709677	    -15.34913453	      6.50116895	     -6.50116895	     15.34913453	     -3.10788752	     25.11685369	     11.28985287	    -11.28985287	    -25.11685369	      3.10788752	     85.72924097	     63.42603357	    -85.72924097	     19.67179043	      5.53384788	     90.00000000	      0.00000000	      0.00000000	      0.00000000	      0.00000000
      0.90725806	    -15.42917519	      6.53507039	     -6.53507039	     15.42917519	     -3.12409412	     25.24782977	     11.34872572	    -11.34872572	    -25.24782977	      3.12409412	     85.72058904	     63.75677936	    -85.72058904	     19.65762050	      5.52231542	     90.00000000	      0.00000000	      0.00000000	      0.00000000	      0.00000000
      0.92741935	    -15.48556852	      6.55895595	     -6.55895595	     15.48556852	     -3.13551262	     25.34011010	     11.39020509	    -11.39020509	    -25.34011010	      3.13551262	     85.71208280	     63.98980914	    -85.71208280	     19.64719490	      5.51403281	     90.00000000	      0.00000000	      0.00000000	      0.00000000	      0.00000000
      0.94758065	    -15.52302674	      6.57482148	     -6.57482148	     15.52302674	     -3.14309715	     25.40140558	     11.41775699	    -11.41775699	    -25.40140558	      3.14309715	     85.71450610	     64.14459483	    -85.71450610	     19.63923415	      5.49643651	     90.00000000	      0.00000000	      0.00000000	      0.00000000	      0.00000000
      0.96774194	    -15.54017076	      6.58208288	     -6.58208288	     15.54017076	     -3.14656847	     25.42945954	     11.43036705	    -11.43036705	    -25.42945954	      3.14656847	     85.70388658	     64.21543774	    -85.70388658	     19.63813610	      5.51128507	     90.00000000	      0.00000000	      0.00000000	      0.00000000	      0.00000000
      0.98790323	    -15.54632500	      6.58468952	     -6.58468952	     15.54632500	     -3.14781458	     25.43953014	     11.43489372	    -11.43489372	    -25.43953014	      3.14781458	     85.69563748	     64.24086842	    -85.69563748	     19.63760243	      5.52788819	     90.00000000	      0.00000000	      0.00000000	      0.00000000	      0.00000000
      1.00806452	    -15.55162006	      6.58693226	     -6.58693226	     15.55162006	     -3.14888672	     25.44819482	     11.43878843	    -11.43878843	    -25.44819482	      3.14888672	     85.71112523	     64.26274879	    -85.71112523	     19.63567838	      5.48791957	     90.00000000	      0.00000000	      0.00000000	      0.00000000	      0.00000000
      1.02822581	    -15.54966749	      6.58610524	     -6.58610524	     15.54966749	     -3.14849136	     25.44499969	     11.43735224	    -11.43735224	    -25.44499969	      3.14849136	     85.70291722	     64.25468033	    -85.70291722	     19.63578501	      5.50846841	     90.00000000	      0.00000000	      0.00000000	      0.00000000	      0.00000000
      1.04838710	    -15.55007344	      6.58627719	     -6.58627719	     15.55007344	     -3.14857356	     25.44566397	     11.43765083	    -11.43765083	    -25.44566397	      3.14857356	     85.70567566	     64.25635780	    -85.70567566	     19.63585518	      5.50453340	     90.00000000	      0.00000000	      0.00000000	      0.00000000	      0.00000000
      1.06854839	    -15.54585757	      6.58449154	     -6.58449154	     15.54585757	     -3.14771993	     25.43876525	     11.43454991	    -11.43454991	    -25.43876525	      3.14771993	     85.69209226	     64.23893689	    -85.69209226	     19.63698175	      5.54272359	     90.00000000	      0.00000000	      0.00000000	      0.00000000	      0.00000000
      1.08870968	    -15.55501834	      6.58837161	     -6.58837161	     15.55501834	     -3.14957480	     25.45375566	     11.44128799	    -11.44128799	    -25.45375566	      3.14957480	     85.71600185	     64.27679124	    -85.71600185	     19.63851700	      5.46323371	     90.00000000	      0.00000000	      0.00000000	      0.00000000	      0.00000000
